<?xml version="1.0" encoding="utf-8"?>
<!-- Generator: Adobe Illustrator 27.5.0, SVG Export Plug-In . SVG Version: 6.00 Build 0)  -->
<svg version="1.1" xmlns="http://www.w3.org/2000/svg" xmlns:xlink="http://www.w3.org/1999/xlink" x="0px" y="0px"
	 viewBox="0 0 499.999 500" style="enable-background:new 0 0 499.999 500;" xml:space="preserve">
<g id="BACKGROUND">
	<g>
		<g>
			<rect x="265.294" y="220.04" style="fill:none;stroke:#FFD1BD;stroke-miterlimit:10;" width="67.552" height="179.864"/>
			<rect x="289.65" y="202.049" style="fill:none;stroke:#FFD1BD;stroke-miterlimit:10;" width="18.84" height="6.438"/>
			<rect x="265.294" y="220.04" style="fill:none;stroke:#FFD1BD;stroke-miterlimit:10;" width="67.552" height="179.864"/>
			<g>
				<rect x="271.357" y="224.214" style="fill:none;stroke:#FFD1BD;stroke-miterlimit:10;" width="14.612" height="44.03"/>
				<rect x="291.764" y="224.214" style="fill:none;stroke:#FFD1BD;stroke-miterlimit:10;" width="14.612" height="44.03"/>
				<rect x="312.171" y="224.214" style="fill:none;stroke:#FFD1BD;stroke-miterlimit:10;" width="14.612" height="44.03"/>
			</g>
			<rect x="265.294" y="268.245" style="fill:none;stroke:#FFD1BD;stroke-miterlimit:10;" width="67.552" height="5.45"/>
			<rect x="265.294" y="220.04" style="fill:none;stroke:#FFD1BD;stroke-miterlimit:10;" width="67.552" height="4.174"/>
			<g>
				<rect x="271.357" y="273.694" style="fill:none;stroke:#FFD1BD;stroke-miterlimit:10;" width="14.612" height="44.03"/>
				<rect x="291.764" y="273.694" style="fill:none;stroke:#FFD1BD;stroke-miterlimit:10;" width="14.612" height="44.03"/>
				<rect x="312.171" y="273.694" style="fill:none;stroke:#FFD1BD;stroke-miterlimit:10;" width="14.612" height="44.03"/>
			</g>
			<rect x="265.294" y="317.724" style="fill:none;stroke:#FFD1BD;stroke-miterlimit:10;" width="67.552" height="5.45"/>
			<g>
				<rect x="271.357" y="323.174" style="fill:none;stroke:#FFD1BD;stroke-miterlimit:10;" width="14.612" height="44.03"/>
				<rect x="291.764" y="323.174" style="fill:none;stroke:#FFD1BD;stroke-miterlimit:10;" width="14.612" height="44.03"/>
				<rect x="312.171" y="323.174" style="fill:none;stroke:#FFD1BD;stroke-miterlimit:10;" width="14.612" height="44.03"/>
			</g>
			<rect x="265.294" y="367.204" style="fill:none;stroke:#FFD1BD;stroke-miterlimit:10;" width="67.552" height="32.7"/>
			<rect x="263.319" y="208.487" style="fill:none;stroke:#FFD1BD;stroke-miterlimit:10;" width="71.502" height="11.553"/>
		</g>
		<g>
			<rect x="345.052" y="273.459" style="fill:none;stroke:#FFD1BD;stroke-miterlimit:10;" width="74.163" height="124.376"/>
			<rect x="349.917" y="285.78" style="fill:none;stroke:#FFD1BD;stroke-miterlimit:10;" width="39.901" height="9.828"/>
			<rect x="372.441" y="299.697" style="fill:none;stroke:#FFD1BD;stroke-miterlimit:10;" width="39.901" height="9.828"/>
			<rect x="349.917" y="341.45" style="fill:none;stroke:#FFD1BD;stroke-miterlimit:10;" width="39.901" height="9.828"/>
			<rect x="369.867" y="355.368" style="fill:none;stroke:#FFD1BD;stroke-miterlimit:10;" width="39.902" height="9.828"/>
			<rect x="349.917" y="313.615" style="fill:none;stroke:#FFD1BD;stroke-miterlimit:10;" width="24.533" height="9.828"/>
			<rect x="379.548" y="313.615" style="fill:none;stroke:#FFD1BD;stroke-miterlimit:10;" width="24.533" height="9.828"/>
			<rect x="379.548" y="369.285" style="fill:none;stroke:#FFD1BD;stroke-miterlimit:10;" width="24.533" height="9.828"/>
			<rect x="388.938" y="327.532" style="fill:none;stroke:#FFD1BD;stroke-miterlimit:10;" width="24.533" height="9.828"/>
			<rect x="349.917" y="327.532" style="fill:none;stroke:#FFD1BD;stroke-miterlimit:10;" width="35.486" height="9.828"/>
			<rect x="345.052" y="273.459" style="fill:none;stroke:#FFD1BD;stroke-miterlimit:10;" width="74.163" height="5.054"/>
			<rect x="345.052" y="254.662" style="fill:none;stroke:#FFD1BD;stroke-miterlimit:10;" width="24.815" height="7.667"/>
			<rect x="340.628" y="262.329" style="fill:none;stroke:#FFD1BD;stroke-miterlimit:10;" width="83.012" height="11.13"/>
		</g>
		<g>
			<rect x="79.853" y="228.188" style="fill:none;stroke:#FFD1BD;stroke-miterlimit:10;" width="103.133" height="172.96"/>
			<rect x="86.617" y="245.322" style="fill:none;stroke:#FFD1BD;stroke-miterlimit:10;" width="55.488" height="13.667"/>
			<rect x="117.941" y="264.676" style="fill:none;stroke:#FFD1BD;stroke-miterlimit:10;" width="55.488" height="13.667"/>
			<rect x="86.617" y="322.739" style="fill:none;stroke:#FFD1BD;stroke-miterlimit:10;" width="55.488" height="13.667"/>
			<rect x="114.361" y="342.093" style="fill:none;stroke:#FFD1BD;stroke-miterlimit:10;" width="55.488" height="13.667"/>
			<rect x="86.617" y="284.03" style="fill:none;stroke:#FFD1BD;stroke-miterlimit:10;" width="34.117" height="13.667"/>
			<rect x="127.823" y="284.03" style="fill:none;stroke:#FFD1BD;stroke-miterlimit:10;" width="34.117" height="13.667"/>
			<rect x="127.823" y="361.448" style="fill:none;stroke:#FFD1BD;stroke-miterlimit:10;" width="34.117" height="13.667"/>
			<rect x="140.881" y="303.385" style="fill:none;stroke:#FFD1BD;stroke-miterlimit:10;" width="34.117" height="13.667"/>
			<rect x="86.617" y="303.385" style="fill:none;stroke:#FFD1BD;stroke-miterlimit:10;" width="49.347" height="13.667"/>
			<rect x="79.853" y="228.188" style="fill:none;stroke:#FFD1BD;stroke-miterlimit:10;" width="103.133" height="7.028"/>
			<rect x="79.853" y="202.049" style="fill:none;stroke:#FFD1BD;stroke-miterlimit:10;" width="34.509" height="10.662"/>
			<rect x="73.7" y="212.71" style="fill:none;stroke:#FFD1BD;stroke-miterlimit:10;" width="115.439" height="15.478"/>
		</g>
		<g>
			<rect x="193.749" y="163.948" style="fill:none;stroke:#FFD1BD;stroke-miterlimit:10;" width="62.892" height="237.201"/>
			<g>
				<rect x="200.443" y="173.774" style="fill:none;stroke:#FFD1BD;stroke-miterlimit:10;" width="14.081" height="41.916"/>
				<rect x="217.877" y="173.774" style="fill:none;stroke:#FFD1BD;stroke-miterlimit:10;" width="14.081" height="41.916"/>
				<rect x="235.866" y="173.774" style="fill:none;stroke:#FFD1BD;stroke-miterlimit:10;" width="14.081" height="41.916"/>
			</g>
			<g>
				<rect x="200.443" y="219.482" style="fill:none;stroke:#FFD1BD;stroke-miterlimit:10;" width="14.081" height="41.916"/>
				<rect x="217.877" y="219.482" style="fill:none;stroke:#FFD1BD;stroke-miterlimit:10;" width="14.081" height="41.916"/>
				<rect x="235.866" y="219.482" style="fill:none;stroke:#FFD1BD;stroke-miterlimit:10;" width="14.081" height="41.916"/>
			</g>
			<g>
				<rect x="200.443" y="263.857" style="fill:none;stroke:#FFD1BD;stroke-miterlimit:10;" width="14.081" height="41.916"/>
				<rect x="217.877" y="263.857" style="fill:none;stroke:#FFD1BD;stroke-miterlimit:10;" width="14.081" height="41.916"/>
				<rect x="235.866" y="263.857" style="fill:none;stroke:#FFD1BD;stroke-miterlimit:10;" width="14.081" height="41.916"/>
			</g>
			<g>
				<rect x="200.443" y="310.396" style="fill:none;stroke:#FFD1BD;stroke-miterlimit:10;" width="14.081" height="41.916"/>
				<rect x="217.877" y="310.396" style="fill:none;stroke:#FFD1BD;stroke-miterlimit:10;" width="14.081" height="41.916"/>
				<rect x="235.866" y="310.396" style="fill:none;stroke:#FFD1BD;stroke-miterlimit:10;" width="14.081" height="41.916"/>
			</g>
			<g>
				<rect x="200.443" y="354.995" style="fill:none;stroke:#FFD1BD;stroke-miterlimit:10;" width="14.081" height="41.916"/>
				<rect x="217.877" y="354.995" style="fill:none;stroke:#FFD1BD;stroke-miterlimit:10;" width="14.081" height="41.916"/>
				<rect x="235.866" y="354.995" style="fill:none;stroke:#FFD1BD;stroke-miterlimit:10;" width="14.081" height="41.916"/>
			</g>
			<rect x="193.749" y="163.948" style="fill:none;stroke:#FFD1BD;stroke-miterlimit:10;" width="62.939" height="6.186"/>
			<rect x="188.104" y="147.998" style="fill:none;stroke:#FFD1BD;stroke-miterlimit:10;" width="74.182" height="15.95"/>
			<polygon style="fill:none;stroke:#FFD1BD;stroke-miterlimit:10;" points="215.994,147.998 207.255,137.668 193.749,137.668 
				193.749,147.998 			"/>
		</g>
		<ellipse style="fill:#FFD1BD;" cx="250" cy="405.222" rx="231.25" ry="16.667"/>
		<path style="fill:none;stroke:#FFD1BD;stroke-miterlimit:10;" d="M428.865,216.654c-0.378-5.659-4.133-10.381-9.275-12.176
			c0.003-0.134,0.02-0.264,0.02-0.399c0-11.524-9.342-20.867-20.867-20.867c-9.751,0-17.916,6.698-20.205,15.737
			c-8.724,0.307-15.707,7.457-15.707,16.255c0,0.467,0.031,0.926,0.07,1.383h-0.175c-7.075,0-12.81,5.735-12.81,12.81v0
			c0,7.075,5.735,12.81,12.81,12.81h64.834c7.075,0,12.81-5.735,12.81-12.81v0C440.371,222.764,435.327,217.308,428.865,216.654z"/>
		<path style="fill:none;stroke:#FFD1BD;stroke-miterlimit:10;" d="M101.374,142.498c-0.228-3.421-2.498-6.275-5.606-7.361
			c0.001-0.081,0.012-0.16,0.012-0.241c0-6.966-5.647-12.614-12.614-12.614c-5.894,0-10.83,4.049-12.214,9.513
			c-5.273,0.186-9.495,4.508-9.495,9.826c0,0.282,0.019,0.56,0.042,0.836h-0.106c-4.277,0-7.744,3.467-7.744,7.744v0
			c0,4.277,3.467,7.743,7.744,7.743h39.192c4.277,0,7.744-3.467,7.744-7.743v0C108.33,146.191,105.281,142.893,101.374,142.498z"/>
		<path style="fill:none;stroke:#FFD1BD;stroke-miterlimit:10;" d="M340.893,170.637c-0.221-3.317-2.423-6.085-5.437-7.138
			c0.001-0.079,0.012-0.155,0.012-0.234c0-6.756-5.477-12.232-12.232-12.232c-5.716,0-10.503,3.927-11.845,9.226
			c-5.114,0.18-9.208,4.371-9.208,9.529c0,0.274,0.018,0.543,0.041,0.811h-0.103c-4.147,0-7.509,3.362-7.509,7.509v0
			c0,4.147,3.362,7.51,7.509,7.51h38.007c4.147,0,7.509-3.362,7.509-7.51v0C347.638,174.218,344.681,171.02,340.893,170.637z"/>
		<path style="fill:none;stroke:#FFD1BD;stroke-miterlimit:10;" d="M202.406,98.342c-0.365-5.463-3.99-10.022-8.954-11.756
			c0.003-0.129,0.019-0.255,0.019-0.385c0-11.126-9.02-20.146-20.146-20.146c-9.414,0-17.297,6.467-19.507,15.194
			c-8.422,0.296-15.164,7.199-15.164,15.694c0,0.451,0.03,0.894,0.068,1.335h-0.169c-6.83,0-12.368,5.537-12.368,12.367v0
			c0,6.83,5.537,12.367,12.368,12.367h62.595c6.83,0,12.367-5.537,12.367-12.367v0C213.514,104.241,208.645,98.973,202.406,98.342z"
			/>
	</g>
</g>
<g id="OBJECTS">
	<text transform="matrix(1 0 0 1 169.8494 313.6152)" style="fill:#204E5F; font-family:'ChunkFive-Roman'; font-size:40.5821px;">CONTACT US!</text>
	<g>
		<g>
			
				<ellipse transform="matrix(0.9725 -0.233 0.233 0.9725 -21.8054 59.9405)" style="fill:#ED7777;" cx="242.852" cy="122.282" rx="32.244" ry="32.244"/>
			<path style="fill:#FFFFFF;" d="M249.105,128.259c-3.283,3.46-8.756,3.566-12.216,0.283c-1.73-1.624-2.683-3.919-2.683-6.285
				c0-4.766,3.884-8.65,8.65-8.65c4.766,0,8.65,3.884,8.65,8.65v2.577c0,1.448,1.165,2.577,2.577,2.577
				c1.447,0,2.577-1.165,2.577-2.577v-2.577c0-7.626-6.214-13.84-13.84-13.84c-7.626,0-13.84,6.214-13.84,13.84
				s6.214,13.84,13.84,13.84c1.801,0,3.601-0.353,5.296-1.059c0.847-0.424,1.906-0.106,2.33,0.777
				c0.424,0.883,0.106,1.907-0.777,2.33c-0.071,0.035-0.141,0.071-0.247,0.106c-8.827,3.672-18.959-0.53-22.596-9.356
				c-3.637-8.826,0.53-18.959,9.356-22.596c8.827-3.637,18.959,0.53,22.596,9.356c0.953,2.083,1.412,4.343,1.412,6.602v2.577
				c0,3.354-2.683,6.073-6.037,6.073C252.142,130.943,250.235,129.919,249.105,128.259z M242.891,127.447
				c2.86,0,5.19-2.33,5.19-5.19s-2.33-5.19-5.19-5.19s-5.19,2.33-5.19,5.19S240.032,127.447,242.891,127.447z"/>
		</g>
		<g>
			
				<ellipse transform="matrix(0.7071 -0.7071 0.7071 0.7071 9.8849 268.4291)" style="fill:#ED7777;" cx="328.965" cy="122.282" rx="32.244" ry="32.244"/>
			<path style="fill:#FFFFFF;" d="M343.715,133.271c-2.262-0.661-8.797-3.868-9.543-3.203c-0.746,0.664-3.915,3.487-3.915,3.487
				c-2.095-0.473-5.73-3.427-7.638-5.57c-1.908-2.141-4.424-6.091-4.654-8.228c0,0,3.171-2.824,3.916-3.489
				c0.746-0.664-1.688-7.524-2.084-9.847c-0.396-2.322-4.129-2.007-5.745-1.57c-1.618,0.437-8.539,12.288,4.416,26.832
				c12.958,14.543,25.526,9.03,26.148,7.474C345.232,137.603,345.976,133.931,343.715,133.271z"/>
		</g>
		<g>
			
				<ellipse transform="matrix(0.9725 -0.233 0.233 0.9725 -17.139 99.4505)" style="fill:#ED7777;" cx="412.449" cy="122.282" rx="32.244" ry="32.244"/>
			<path style="fill:#FFFFFF;" d="M412.539,100.411c-8.435,0-15.254,6.819-15.254,15.254c0,8.255,6.819,19.381,12.741,27.277
				c1.256,1.615,3.589,1.615,4.845,0c5.922-7.896,12.741-19.022,12.741-27.277C427.613,107.231,420.794,100.411,412.539,100.411z
				 M412.449,124.946c-4.977,0-9.012-4.035-9.012-9.012c0-4.977,4.035-9.012,9.012-9.012c4.977,0,9.012,4.035,9.012,9.012
				C421.461,120.911,417.426,124.946,412.449,124.946z"/>
		</g>
	</g>
	<g>
		<defs>
			<rect id="SVGID_1_" y="85.722" width="276.098" height="414.279"/>
		</defs>
		<clipPath id="SVGID_00000103252643712010404060000001253374969956746906_">
			<use xlink:href="#SVGID_1_"  style="overflow:visible;"/>
		</clipPath>
		<g style="clip-path:url(#SVGID_00000103252643712010404060000001253374969956746906_);">
			<g>
				<g>
					<path style="fill:#18414C;" d="M144.511,611.808l-29.618,0l0,34.487l30.632,0l0-6.897l4.057,6.897l54.773-0.001l-2.637-8.317
						C201.718,637.976,144.714,631.891,144.511,611.808z"/>
					<path style="fill:#4D7B87;" d="M151.277,622.799c3.395,2.557,7.799,4.728,12.599,6.561l-22.611,3.95l12.78-5.883l-23.532,1.623
						L151.277,622.799z"/>
				</g>
				<g>
					<path style="fill:#204E5F;" d="M82.578,611.808H52.96v34.487h30.632v-6.897l4.057,6.897h54.773l-2.637-8.317
						C139.785,637.977,82.781,631.891,82.578,611.808z"/>
					<path style="fill:#4D7B87;" d="M89.344,622.8c3.395,2.557,7.799,4.728,12.599,6.561l-22.611,3.95l12.78-5.883l-23.532,1.623
						L89.344,622.8z"/>
				</g>
				<g>
					<polygon style="fill:#204E5F;" points="86.384,333.174 151.437,331.935 151.159,338.642 158.53,619.627 109.056,619.627 
						119.224,462.509 116.153,378.527 98.554,619.838 39.73,619.838 75.662,466.109 87.084,340.559 					"/>
					<path style="fill:#18414C;" d="M126.08,619.627l7.982-156.852c0,0-6.935-55.048-7.546-67.235
						c-0.61-12.188,16.542-20.338,16.542-20.338l-26.905,3.325l3.071,83.982l-10.168,157.118H126.08z"/>
				</g>
			</g>
			<g>
				<g>
					<path style="fill:#FFC6A8;" d="M136.068,205.483c0,0-3.572,4.739-11.883,5.88c-8.311,1.141-17.438-4.621-17.438-4.621
						l-0.98-54.93c0,0,20.348,1.21,20.27,2.229C125.958,155.06,136.068,205.483,136.068,205.483z"/>
					<path style="fill:#EAA98C;" d="M108.887,157.986c-0.17-2.105-0.205-4.077-0.18-5.986c0.332,0.022,0.689,0.047,1.06,0.073
						c0.065,0.004,0.133,0.009,0.198,0.014c0.308,0.022,0.628,0.044,0.957,0.068c0.073,0.005,0.145,0.01,0.219,0.016
						c0.391,0.028,0.794,0.058,1.207,0.089c0.055,0.004,0.111,0.008,0.166,0.012c0.355,0.027,0.717,0.055,1.083,0.083
						c0.098,0.008,0.195,0.015,0.294,0.023c0.415,0.033,0.834,0.066,1.255,0.101c0.08,0.007,0.161,0.013,0.242,0.02
						c0.356,0.029,0.712,0.06,1.067,0.09c0.107,0.009,0.214,0.018,0.321,0.028c0.403,0.035,0.803,0.071,1.2,0.108
						c0.112,0.01,0.223,0.021,0.335,0.031c0.336,0.032,0.669,0.064,0.996,0.096c0.089,0.009,0.18,0.018,0.268,0.027
						c0.381,0.039,0.753,0.078,1.116,0.117c0.107,0.012,0.211,0.023,0.316,0.035c0.314,0.035,0.62,0.07,0.915,0.106
						c0.06,0.007,0.123,0.015,0.182,0.022c0.339,0.042,0.658,0.084,0.964,0.126c0.078,0.011,0.154,0.022,0.23,0.033
						c0.266,0.038,0.519,0.076,0.753,0.115c0.038,0.006,0.08,0.012,0.117,0.018c0.256,0.043,0.483,0.086,0.692,0.129
						c0.053,0.011,0.102,0.022,0.151,0.033c0.188,0.041,0.357,0.083,0.497,0.124c0.011,0.003,0.027,0.007,0.037,0.01
						c0.143,0.044,0.246,0.087,0.328,0.13c0.02,0.011,0.037,0.021,0.054,0.032c0.067,0.044,0.113,0.087,0.11,0.131
						c-0.053,0.696,4.65,24.461,7.634,39.443C116.257,194.361,110.282,175.285,108.887,157.986z"/>
				</g>
				<path style="fill:#FFC6A8;" d="M140.433,185.383c-9.586,2.349-28.718-0.464-30.749-28.711s12.572-39.575,23.115-37.338
					c10.542,2.237,17.596,26.007,18.638,37.978C152.478,169.282,152.576,182.407,140.433,185.383z"/>
				<g>
					<path style="fill:#18414C;" d="M127.777,145.98c0.111-1.01,1.02-1.738,2.029-1.627c1.01,0.111,1.738,1.02,1.627,2.029
						c-0.111,1.01-1.019,1.738-2.029,1.627C128.394,147.898,127.666,146.99,127.777,145.98z"/>
					<path style="fill:#18414C;" d="M140.06,144.654c0.111-1.01,1.02-1.738,2.029-1.627c1.01,0.111,1.738,1.02,1.627,2.029
						c-0.111,1.01-1.02,1.738-2.029,1.627C140.678,146.572,139.949,145.663,140.06,144.654z"/>
					<path style="fill:#18414C;" d="M135.669,165.986c-1.671,0-3.474-0.442-5.24-1.692c-0.206-0.147-0.255-0.432-0.109-0.638
						c0.148-0.207,0.434-0.253,0.638-0.109c4.246,3.006,8.782,0.835,10.628-0.311c-2.113-0.9-4.563-4.106-4.883-4.534
						c-0.109-0.146-0.122-0.342-0.031-0.501c0.089-0.158,0.261-0.251,0.446-0.229c2.336,0.241,5.349-1.908,6.555-2.877
						c-1.762-0.829-6.177-3.08-7.028-5.195c-0.095-0.234,0.02-0.501,0.254-0.595c0.232-0.095,0.502,0.02,0.595,0.254
						c0.736,1.828,5.456,4.23,7.213,5.001c0.142,0.063,0.243,0.193,0.267,0.346c0.025,0.153-0.029,0.309-0.144,0.413
						c-0.161,0.145-3.622,3.245-6.822,3.561c1.408,1.714,3.525,3.799,4.67,3.669c0.199-0.026,0.394,0.091,0.473,0.279
						c0.079,0.187,0.024,0.404-0.134,0.532C142.971,163.397,139.708,165.986,135.669,165.986z"/>
					<path style="fill:#18414C;" d="M132.903,168.135c-1.583,0-2.925-0.81-3.408-1.464c-0.15-0.204-0.107-0.49,0.096-0.64
						c0.205-0.148,0.489-0.107,0.64,0.097c0.378,0.512,1.802,1.298,3.296,1.039c0.242-0.053,0.485,0.123,0.528,0.372
						c0.044,0.249-0.123,0.486-0.372,0.529C133.419,168.114,133.158,168.135,132.903,168.135z"/>
				</g>
				<path style="fill:#18414C;" d="M143.728,112.688c-19.043,4.578-24.004-0.697-35.028,5.297
					c-11.024,5.995-27.533,26.287-2.722,45.667l6.805-10.166c0,0,9.86-11.043,8.134-15.926c-1.725-4.883-2.775-8.392-2.775-8.392
					s14.957,8.387,17.006,4.957c0.458-0.766,0.38-1.556,0.01-2.322c3.419,2.235,7.502,4.019,10.289,2.322
					c1.244-0.758,1.528-1.616,1.219-2.493c2.226,0.626,4.422,0.425,6.067-1.548C156.423,125.658,162.771,108.11,143.728,112.688z"/>
				<path style="fill:#FFC6A8;" d="M114.735,152.791c-2.056-3.675-11.35-13.578-12.527-7.543c-1.177,6.035,2.157,13.08,7.122,14.654
					C114.293,161.476,117.025,156.886,114.735,152.791z"/>
				<g>
					<path style="fill:#204E5F;" d="M133.735,177.282l-7.017,1.833c-0.646,0.169-1.306-0.218-1.475-0.864l-0.632-2.422
						c-0.169-0.646,0.218-1.307,0.864-1.475l7.017-1.833c0.646-0.169,1.307,0.218,1.475,0.864l0.632,2.422
						C134.768,176.453,134.381,177.113,133.735,177.282z"/>
					<path style="fill:#C65454;" d="M117.842,179.813c-4.272,0-7.629-1.675-9.897-4.993c-4.245-6.208-2.903-17.481-2.539-19.984
						c-2.49-2.433-16.287-16.701-8.701-26.987c0.3-0.406,0.874-0.494,1.28-0.193c0.407,0.3,0.494,0.874,0.193,1.28
						c-7.177,9.732,8.669,24.75,8.83,24.9l0.359,0.336l-0.081,0.485c-0.021,0.128-2.105,12.877,2.17,19.13
						c3.853,5.634,10.838,4.542,16.019,2.633c0.474-0.174,1.001,0.067,1.176,0.543c0.174,0.475-0.068,1.001-0.543,1.176
						C123.07,179.256,120.304,179.813,117.842,179.813z"/>
					<path style="fill:#204E5F;" d="M109.392,156.922h-7.252c-0.668,0-1.209-0.541-1.209-1.209v-2.503
						c0-0.668,0.541-1.209,1.209-1.209h7.252c0.668,0,1.209,0.541,1.209,1.209v2.503C110.601,156.38,110.06,156.922,109.392,156.922
						z"/>
				</g>
			</g>
			<g>
				<path style="fill:#FFC6A8;" d="M81.729,349.782c0,0,20.241,2.65,22.852,1.738c2.61-0.912,3.357,0.467,2.06,1.187
					c-1.297,0.72-4.12,3.83-7.63,3.763c-3.51-0.067-6.488,0.077-6.488,0.077s3.448,6.989,1.973,12.254
					c-1.474,5.264-5.341,30.738-7.333,31.472c-1.992,0.733-2.765-0.939-2.463-2.909c0,0-4.515,1.491-3.466-2.356
					c0,0-3.09,0.572-2.06-2.632c1.03-3.204,2.756-16.826,3.347-19.451c0.591-2.626-4.342-12.916-4.342-12.916L81.729,349.782z"/>
				<g>
					<path style="fill:#FFC6A8;" d="M234.39,166.807l16.258-21.332c0.477-0.626,1.291-0.893,2.046-0.672l1.035,0.303l-12.565,18.864
						c0,0,9.664-2.872,7.795,1.705c0,0,5.227-1.686,2.48,3.162c0,0,5.493-1.127,2.289,2.559c-3.204,3.686-5.853,20.46-16.431,20.76
						c-10.578,0.299-9.405-2.105-9.405-2.105L234.39,166.807z"/>
					<path style="fill:#EAA98C;" d="M248.076,180.173c-1.787-1.222-0.833-1.358-0.833-1.358s-2.518,0.551-3.128,0
						s-0.992-1.622-0.992-1.622s-1.45,0.302-2.213,0c-0.763-0.302-2.67-5.013-1.068-6.549c1.602-1.536,6.332-1,6.599-4.014
						c0.121-1.36,0.465-2.572,0.807-3.51c-2.378-0.25-6.085,0.85-6.085,0.85l0.879-1.32l-5.449,1.264l-2.204,2.892l-6.497,23.244
						c0,0-0.241,0.523,0.559,1.05l0,0c0,0,10.627-4.597,11.772-9.232c0,0,2.403,0.447,3.433,0.366c0,0,1.03,0.949,1.945,0.721
						c0,0,0.673,1.117,2.387,0.621c0.506-0.959,0.974-1.933,1.408-2.908C248.95,180.605,248.497,180.461,248.076,180.173z"/>
					<path style="fill:#FFC6A8;" d="M227.893,190.051l-1.999-20.025c-0.339-3.39,2.045-6.447,5.415-6.946l15.133-2.239
						c0,0,0.649,7.922-5.989,7.751C233.816,168.422,247.377,179.865,227.893,190.051z"/>
				</g>
				<g>
					<path style="fill:#ED7777;" d="M223.608,188.356c0,0-7.125,33.822-24.155,36.264c-10.843,1.555-25.175-7.59-34.158-14.44
						c-5.981-4.561-13.317-6.967-20.837-6.805l-50.997,1.099c-11.892,0.256-22.735,6.867-28.41,17.32l-52.956,92.38l61.762,60.942
						l15.868-30.684L45.36,304.877l32.99-56.502l8.734,92.184l64.075-1.918l3.687-88.814c8.949,2.444,18.95,5.173,25.992,7.091
						c15.869,4.322,54.223-0.56,61.136-33.826c6.913-33.266,6.913-33.266,6.913-33.266L223.608,188.356z"/>
					<path style="fill:#C65454;" d="M78.379,248.691l4.464,47.111c5.307-24.861,6.64-67.407,6.64-67.407L78.379,248.691z"/>
					
						<rect x="233.617" y="186.187" transform="matrix(0.1216 -0.9926 0.9926 0.1216 9.6594 406.5611)" style="fill:#FFB6B6;" width="1.832" height="23.272"/>
					
						<rect x="232.529" y="189.964" transform="matrix(0.1216 -0.9926 0.9926 0.1216 4.9558 408.7993)" style="fill:#FFB6B6;" width="1.832" height="23.272"/>
					<polygon style="fill:#FFB6B6;" points="81.909,339.455 66.367,362.631 64.69,361.48 80.231,338.304 					"/>
					<polygon style="fill:#FFB6B6;" points="85.047,342.51 69.506,365.686 67.829,364.535 83.37,341.359 					"/>
				</g>
				<g>
					<g>
						<path style="fill:#204E5F;" d="M118.145,217.224c0,0-4.192,92.423-6.563,101.392l13.495,14.121l8.985-14.121
							c0,0-4.877-91.393-8.985-101.392H118.145z"/>
						<path style="fill:#18414C;" d="M125.077,217.224h-6.932c0,0-0.141,3.116-0.386,8.246c0.328,0.083,0.667,0.124,1.011,0.096
							l6.025-0.503c0.672-0.056,1.294-0.342,1.82-0.784C126.098,220.914,125.582,218.452,125.077,217.224z"/>
						<path style="fill:#204E5F;" d="M130.301,212.137l-3.362,6.933c-0.294,0.607-0.89,1.011-1.563,1.059l-7.685,0.555
							c-0.673,0.049-1.32-0.265-1.699-0.824l-4.323-6.378c-0.379-0.558-0.43-1.276-0.136-1.883l3.362-6.933
							c0.294-0.607,0.89-1.011,1.563-1.059l7.685-0.555c0.673-0.049,1.32,0.265,1.699,0.824l4.323,6.378
							C130.543,210.812,130.595,211.53,130.301,212.137z"/>
						<path style="fill:#18414C;" d="M129.303,214.195l0.603-1.243c0.539-1.111,0.444-2.426-0.249-3.448l-3.307-4.878
							c-0.693-1.022-1.879-1.597-3.111-1.508l-5.878,0.425c-1.232,0.089-2.323,0.828-2.861,1.94l-2.571,5.303
							c-0.539,1.111-0.444,2.426,0.249,3.448l0.56,0.825l8.689-4.751L129.303,214.195z"/>
					</g>
					<polygon style="fill:#C65454;" points="120.897,204.855 139.701,217.298 136.773,195.587 120.911,195.919 104.673,196.259 
						102.497,218.078 					"/>
				</g>
			</g>
		</g>
	</g>
</g>
<g id="DESIGNED_BY_FREEPIK">
	<g>
		<g id="XMLID_319_">
			<g id="XMLID_338_">
				<path id="XMLID_346_" style="fill:#1D262D;" d="M260.104,465.465c-0.433,0.443-0.804,0.932-1.108,1.453l-0.465-0.241
					c-0.067-0.297-0.35-0.502-0.659-0.466c-0.331,0.039-0.567,0.339-0.529,0.67c0.039,0.331,0.339,0.567,0.67,0.528
					c0.065-0.007,0.127-0.025,0.184-0.052l0.451,0.234c-0.251,0.554-0.433,1.139-0.539,1.743l0.747,0.132
					c0.23-1.306,0.85-2.507,1.792-3.473L260.104,465.465z"/>
				<path id="XMLID_345_" style="fill:#1D262D;" d="M265.591,463.164c-0.171,0-0.341,0.006-0.509,0.017l-0.074-0.626
					c0.188-0.149,0.296-0.389,0.266-0.645c-0.046-0.393-0.402-0.674-0.795-0.628c-0.394,0.046-0.675,0.402-0.628,0.796
					c0.03,0.254,0.189,0.461,0.404,0.563l0.073,0.624c-0.714,0.116-1.402,0.332-2.06,0.646l0.327,0.685
					c0.935-0.447,1.941-0.674,2.995-0.674c0.497,0,0.993,0.053,1.476,0.158l0.16-0.741
					C266.692,463.222,266.142,463.164,265.591,463.164z"/>
				<path id="XMLID_344_" style="fill:#1D262D;" d="M272.194,465.711c0.331-0.04,0.566-0.341,0.525-0.672
					c-0.04-0.331-0.341-0.566-0.672-0.525c-0.31,0.038-0.535,0.304-0.53,0.608l-0.416,0.363c-0.418-0.43-0.89-0.813-1.407-1.14
					l-0.404,0.642c1.135,0.715,2.021,1.727,2.564,2.925l0.69-0.313c-0.251-0.554-0.567-1.071-0.942-1.545l0.402-0.351
					C272.065,465.715,272.128,465.719,272.194,465.711z"/>
				<path id="XMLID_343_" style="fill:#1D262D;" d="M265.044,473.372c-0.386,0.023-0.775,0.035-1.157,0.035
					c-0.88,0-1.733-0.061-2.479-0.18c-0.391-0.062-0.846-0.154-1.271-0.292c1.047,1.861,3.069,3.125,5.389,3.125
					c2.855,0,5.263-1.916,5.949-4.503c-0.682,0.449-1.505,0.825-2.458,1.122C267.838,473.047,266.463,473.287,265.044,473.372z"/>
				<path id="XMLID_339_" style="fill:#1D262D;" d="M265.591,464.68c-3.351,0-6.079,2.666-6.079,5.943
					c0,0.425,0.046,0.849,0.137,1.261c0.674,0.483,2.706,0.891,5.348,0.731c2.88-0.174,5.297-0.958,6.672-2.159
					c-0.005-0.194-0.021-0.39-0.045-0.581C271.244,466.914,268.65,464.68,265.591,464.68z M263.432,471.195
					c-1.02,0-1.85-0.83-1.85-1.85c0-1.021,0.83-1.851,1.85-1.851c1.02,0,1.85,0.83,1.85,1.851
					C265.282,470.365,264.452,471.195,263.432,471.195z M268.169,470.287c-0.75,0-1.36-0.61-1.36-1.36s0.61-1.36,1.36-1.36
					s1.36,0.61,1.36,1.36S268.919,470.287,268.169,470.287z"/>
			</g>
			<path id="XMLID_336_" style="fill:#1D262D;" d="M281.595,466.547c-0.295-0.116-0.806-0.31-1.383-0.238
				c-0.551,0.069-0.844,0.341-0.844,1.007v0.866h2.229v1.717h-2.229v5.455h-1.932v-5.455h-1.339v-1.717h1.339v-0.889
				c0-1.68,0.896-2.782,2.568-2.782c0.643,0,1.157,0.121,1.59,0.308V466.547z"/>
			<path id="XMLID_334_" style="fill:#1D262D;" d="M286.297,469.878c-0.177-0.029-0.357-0.046-0.525-0.046
				c-0.896,0-1.51,0.548-1.51,1.613v3.908h-1.933v-7.172h1.873v0.784c0.451-0.673,1.14-0.977,2.021-0.977
				c0.414,0,0.848,0.128,1.095,0.337L286.297,469.878z"/>
			<path id="XMLID_331_" style="fill:#1D262D;" d="M293.965,471.757c0,0.222-0.016,0.488-0.037,0.651h-5.085
				c0.207,1.036,0.933,1.487,1.843,1.487c0.622,0,1.295-0.252,1.813-0.689l1.133,1.243c-0.814,0.748-1.851,1.089-3.057,1.089
				c-2.198,0-3.724-1.496-3.724-3.753c0-2.258,1.48-3.797,3.627-3.797C292.543,467.99,293.958,469.522,293.965,471.757z
				 M288.851,471.091h3.175c-0.178-0.918-0.732-1.437-1.562-1.437C289.554,469.655,289.021,470.203,288.851,471.091z"/>
			<path id="XMLID_328_" style="fill:#1D262D;" d="M301.619,471.757c0,0.222-0.016,0.488-0.037,0.651h-5.085
				c0.207,1.036,0.933,1.487,1.843,1.487c0.622,0,1.296-0.252,1.814-0.689l1.133,1.243c-0.815,0.748-1.851,1.089-3.058,1.089
				c-2.198,0-3.723-1.496-3.723-3.753c0-2.258,1.48-3.797,3.627-3.797C300.197,467.99,301.611,469.522,301.619,471.757z
				 M296.504,471.091h3.175c-0.178-0.918-0.733-1.437-1.561-1.437C297.208,469.655,296.674,470.203,296.504,471.091z"/>
			<path id="XMLID_325_" style="fill:#1D262D;" d="M309.964,471.764c0,2.154-1.495,3.775-3.472,3.775
				c-0.962,0-1.644-0.378-2.109-0.933v3.708h-1.925v-10.133h1.888v0.792c0.467-0.585,1.154-0.984,2.139-0.984
				C308.469,467.99,309.964,469.611,309.964,471.764z M304.287,471.764c0,1.133,0.748,1.977,1.844,1.977
				c1.14,0,1.85-0.881,1.85-1.977c0-1.095-0.71-1.976-1.85-1.976C305.035,469.789,304.287,470.632,304.287,471.764z"/>
			<path id="XMLID_322_" style="fill:#1D262D;" d="M313.068,465.836c0,0.696-0.541,1.229-1.236,1.229
				c-0.696,0-1.229-0.533-1.229-1.229c0-0.695,0.532-1.243,1.229-1.243C312.527,464.592,313.068,465.14,313.068,465.836z
				 M312.808,475.354h-1.932v-7.172h1.932V475.354z"/>
			<path id="XMLID_320_" style="fill:#1D262D;" d="M316.032,470.736l2.702-2.554h2.368l-3.478,3.375l3.501,3.797h-2.376
				l-2.717-2.901v2.901H314.1v-10.658h1.932V470.736z"/>
		</g>
		<g>
			<path style="fill:#1D262D;" d="M184.412,475.29v-1.055c-0.527,0.718-1.391,1.23-2.387,1.23c-1.846,0-3.149-1.406-3.149-3.706
				c0-2.256,1.289-3.721,3.149-3.721c0.952,0,1.816,0.469,2.387,1.245v-3.765h1.099v9.771H184.412z M184.412,473.371v-3.208
				c-0.395-0.615-1.245-1.143-2.124-1.143c-1.42,0-2.27,1.172-2.27,2.739c0,1.567,0.85,2.725,2.27,2.725
				C183.167,474.484,184.017,473.986,184.412,473.371z"/>
			<path style="fill:#1D262D;" d="M186.932,471.745c0-2.051,1.465-3.706,3.486-3.706c2.139,0,3.398,1.67,3.398,3.794v0.278h-5.727
				c0.088,1.333,1.025,2.446,2.549,2.446c0.806,0,1.626-0.322,2.182-0.894l0.527,0.718c-0.703,0.703-1.655,1.084-2.812,1.084
				C188.44,475.465,186.932,473.957,186.932,471.745z M190.403,468.947c-1.509,0-2.256,1.274-2.314,2.358h4.644
				C192.718,470.25,192.015,468.947,190.403,468.947z"/>
			<path style="fill:#1D262D;" d="M194.607,474.352l0.571-0.791c0.469,0.542,1.362,1.011,2.329,1.011c1.084,0,1.67-0.513,1.67-1.216
				c0-1.714-4.38-0.659-4.38-3.281c0-1.099,0.952-2.036,2.636-2.036c1.202,0,2.051,0.454,2.623,1.025l-0.513,0.762
				c-0.424-0.513-1.201-0.894-2.109-0.894c-0.966,0-1.567,0.483-1.567,1.113c0,1.553,4.379,0.527,4.379,3.281
				c0,1.187-0.952,2.139-2.783,2.139C196.306,475.465,195.325,475.114,194.607,474.352z"/>
			<path style="fill:#1D262D;" d="M201.477,466.471c0-0.41,0.337-0.747,0.732-0.747c0.41,0,0.747,0.337,0.747,0.747
				c0,0.41-0.337,0.732-0.747,0.732C201.814,467.204,201.477,466.881,201.477,466.471z M201.667,475.29v-7.075h1.099v7.075H201.667z
				"/>
			<path style="fill:#1D262D;" d="M204.582,477.106l0.556-0.82c0.586,0.703,1.289,0.967,2.3,0.967c1.172,0,2.271-0.571,2.271-2.124
				v-1.011c-0.513,0.718-1.377,1.26-2.373,1.26c-1.846,0-3.149-1.377-3.149-3.662c0-2.271,1.289-3.677,3.149-3.677
				c0.952,0,1.802,0.469,2.373,1.245v-1.069h1.099v6.87c0,2.344-1.641,3.076-3.369,3.076
				C206.237,478.161,205.416,477.925,204.582,477.106z M209.708,473.253v-3.091c-0.381-0.615-1.23-1.143-2.109-1.143
				c-1.421,0-2.27,1.128-2.27,2.695c0,1.553,0.849,2.695,2.27,2.695C208.478,474.411,209.328,473.869,209.708,473.253z"/>
			<path style="fill:#1D262D;" d="M217.413,475.29v-4.629c0-1.245-0.63-1.641-1.582-1.641c-0.864,0-1.685,0.527-2.094,1.099v5.171
				h-1.099v-7.075h1.099v1.025c0.497-0.586,1.464-1.201,2.519-1.201c1.479,0,2.256,0.747,2.256,2.285v4.966H217.413z"/>
			<path style="fill:#1D262D;" d="M219.932,471.745c0-2.051,1.465-3.706,3.486-3.706c2.139,0,3.398,1.67,3.398,3.794v0.278h-5.727
				c0.088,1.333,1.025,2.446,2.548,2.446c0.806,0,1.626-0.322,2.183-0.894l0.527,0.718c-0.703,0.703-1.655,1.084-2.813,1.084
				C221.441,475.465,219.932,473.957,219.932,471.745z M223.404,468.947c-1.509,0-2.256,1.274-2.314,2.358h4.643
				C225.718,470.25,225.015,468.947,223.404,468.947z"/>
			<path style="fill:#1D262D;" d="M233.35,475.29v-1.055c-0.527,0.718-1.392,1.23-2.388,1.23c-1.845,0-3.149-1.406-3.149-3.706
				c0-2.256,1.289-3.721,3.149-3.721c0.952,0,1.817,0.469,2.388,1.245v-3.765h1.098v9.771H233.35z M233.35,473.371v-3.208
				c-0.396-0.615-1.245-1.143-2.124-1.143c-1.421,0-2.27,1.172-2.27,2.739c0,1.567,0.85,2.725,2.27,2.725
				C232.105,474.484,232.954,473.986,233.35,473.371z"/>
			<path style="fill:#1D262D;" d="M239.692,475.29v-9.771h1.099v3.765c0.571-0.776,1.421-1.245,2.388-1.245
				c1.845,0,3.149,1.465,3.149,3.721c0,2.3-1.304,3.706-3.149,3.706c-0.996,0-1.86-0.513-2.388-1.23v1.055H239.692z M242.9,474.484
				c1.436,0,2.285-1.157,2.285-2.725c0-1.567-0.85-2.739-2.285-2.739c-0.864,0-1.729,0.527-2.109,1.143v3.208
				C241.171,473.986,242.036,474.484,242.9,474.484z"/>
			<path style="fill:#1D262D;" d="M247.528,477.062c0.161,0.073,0.425,0.117,0.601,0.117c0.483,0,0.806-0.161,1.055-0.747
				l0.469-1.069l-2.959-7.148h1.187l2.358,5.801l2.344-5.801h1.2l-3.544,8.511c-0.425,1.024-1.143,1.421-2.08,1.436
				c-0.234,0-0.6-0.044-0.806-0.104L247.528,477.062z"/>
		</g>
	</g>
</g>
</svg>
