<?xml version="1.0" encoding="UTF-8"?>
<svg xmlns="http://www.w3.org/2000/svg" xmlns:xlink="http://www.w3.org/1999/xlink" width="100px" height="100px" viewBox="0 0 100 100" version="1.1">
<defs>
<linearGradient id="linear0" gradientUnits="userSpaceOnUse" x1="-7708.7969" y1="-803.36011" x2="-7633.1528" y2="-714.90741" gradientTransform="matrix(0.0538515,-0.115489,0.115489,0.0538515,589.828982,-838.381873)">
<stop offset="0" style="stop-color:rgb(96.470588%,60%,13.72549%);stop-opacity:1;"/>
<stop offset="0.3123" style="stop-color:rgb(96.862745%,60.392157%,13.72549%);stop-opacity:1;"/>
<stop offset="0.8383" style="stop-color:rgb(91.372549%,47.058824%,14.901961%);stop-opacity:1;"/>
</linearGradient>
<filter id="alpha" filterUnits="objectBoundingBox" x="0%" y="0%" width="100%" height="100%">
  <feColorMatrix type="matrix" in="SourceGraphic" values="0 0 0 0 1 0 0 0 0 1 0 0 0 0 1 0 0 0 1 0"/>
</filter>
<mask id="mask0">
  <g filter="url(#alpha)">
<rect x="0" y="0" width="100" height="100" style="fill:rgb(0%,0%,0%);fill-opacity:0.34902;stroke:none;"/>
  </g>
</mask>
<clipPath id="clip1">
  <rect x="0" y="0" width="100" height="100"/>
</clipPath>
<g id="surface5" clip-path="url(#clip1)">
<path style=" stroke:none;fill-rule:nonzero;fill:rgb(74.509804%,12.54902%,18.039216%);fill-opacity:1;" d="M 78.664062 34.097656 C 78.410156 34.148438 78.152344 34.1875 77.898438 34.226562 C 78.027344 34.214844 78.167969 34.1875 78.292969 34.164062 C 78.421875 34.148438 78.546875 34.125 78.664062 34.097656 Z M 78.664062 34.097656 "/>
</g>
<mask id="mask1">
  <g filter="url(#alpha)">
<rect x="0" y="0" width="100" height="100" style="fill:rgb(0%,0%,0%);fill-opacity:0.34902;stroke:none;"/>
  </g>
</mask>
<clipPath id="clip2">
  <rect x="0" y="0" width="100" height="100"/>
</clipPath>
<g id="surface8" clip-path="url(#clip2)">
<path style=" stroke:none;fill-rule:nonzero;fill:rgb(74.509804%,12.54902%,18.039216%);fill-opacity:1;" d="M 79.324219 30.875 C 79.3125 30.875 79.3125 30.875 79.324219 30.875 C 79.363281 30.875 79.402344 30.863281 79.441406 30.863281 C 79.605469 30.835938 79.773438 30.8125 79.925781 30.773438 C 79.734375 30.8125 79.53125 30.835938 79.324219 30.875 Z M 79.324219 30.875 "/>
</g>
<linearGradient id="linear1" gradientUnits="userSpaceOnUse" x1="-8268.6387" y1="-813.12323" x2="-7728.9585" y2="-813.12323" gradientTransform="matrix(0.0538515,-0.115489,0.115489,0.0538515,589.828982,-838.381873)">
<stop offset="0.3233" style="stop-color:rgb(61.960784%,12.54902%,39.215686%);stop-opacity:1;"/>
<stop offset="0.6302" style="stop-color:rgb(78.823529%,12.54902%,21.568627%);stop-opacity:1;"/>
<stop offset="0.7514" style="stop-color:rgb(80.392157%,13.72549%,20.784314%);stop-opacity:1;"/>
<stop offset="1" style="stop-color:rgb(91.372549%,47.058824%,14.901961%);stop-opacity:1;"/>
</linearGradient>
<linearGradient id="linear2" gradientUnits="userSpaceOnUse" x1="-8203.4922" y1="-758.99402" x2="-7881.895" y2="-758.99402" gradientTransform="matrix(0.0538515,-0.115489,0.115489,0.0538515,589.828982,-838.381873)">
<stop offset="0" style="stop-color:rgb(15.686275%,14.901961%,38.431373%);stop-opacity:1;"/>
<stop offset="0.0954839" style="stop-color:rgb(40%,18.039216%,55.294118%);stop-opacity:1;"/>
<stop offset="0.7882" style="stop-color:rgb(62.352941%,12.54902%,39.215686%);stop-opacity:1;"/>
<stop offset="0.9487" style="stop-color:rgb(80.392157%,12.54902%,19.607843%);stop-opacity:1;"/>
</linearGradient>
<linearGradient id="linear3" gradientUnits="userSpaceOnUse" x1="-8238.3281" y1="-818.15222" x2="-7698.647" y2="-818.15222" gradientTransform="matrix(0.0538515,-0.115489,0.115489,0.0538515,589.828982,-838.381873)">
<stop offset="0.3233" style="stop-color:rgb(61.960784%,12.54902%,39.215686%);stop-opacity:1;"/>
<stop offset="0.6302" style="stop-color:rgb(78.823529%,12.54902%,21.568627%);stop-opacity:1;"/>
<stop offset="0.7514" style="stop-color:rgb(80.392157%,13.72549%,20.784314%);stop-opacity:1;"/>
<stop offset="1" style="stop-color:rgb(91.372549%,47.058824%,14.901961%);stop-opacity:1;"/>
</linearGradient>
<linearGradient id="linear4" gradientUnits="userSpaceOnUse" x1="-8198.9678" y1="-810.85059" x2="-7915.3501" y2="-810.85059" gradientTransform="matrix(0.0538515,-0.115489,0.115489,0.0538515,589.828982,-838.381873)">
<stop offset="0" style="stop-color:rgb(15.686275%,14.901961%,38.431373%);stop-opacity:1;"/>
<stop offset="0.0954839" style="stop-color:rgb(40%,18.039216%,55.294118%);stop-opacity:1;"/>
<stop offset="0.7882" style="stop-color:rgb(62.352941%,12.54902%,39.215686%);stop-opacity:1;"/>
<stop offset="0.9487" style="stop-color:rgb(80.392157%,12.54902%,19.607843%);stop-opacity:1;"/>
</linearGradient>
<linearGradient id="linear5" gradientUnits="userSpaceOnUse" x1="-8238.3281" y1="-762.29712" x2="-7698.647" y2="-762.29712" gradientTransform="matrix(0.0538515,-0.115489,0.115489,0.0538515,589.828982,-838.381873)">
<stop offset="0.3233" style="stop-color:rgb(61.960784%,12.54902%,39.215686%);stop-opacity:1;"/>
<stop offset="0.6302" style="stop-color:rgb(78.823529%,12.54902%,21.568627%);stop-opacity:1;"/>
<stop offset="0.7514" style="stop-color:rgb(80.392157%,13.72549%,20.784314%);stop-opacity:1;"/>
<stop offset="1" style="stop-color:rgb(91.372549%,47.058824%,14.901961%);stop-opacity:1;"/>
</linearGradient>
<linearGradient id="linear6" gradientUnits="userSpaceOnUse" x1="-8271.8057" y1="-765.07068" x2="-7732.125" y2="-765.07068" gradientTransform="matrix(0.0538515,-0.115489,0.115489,0.0538515,589.828982,-838.381873)">
<stop offset="0.3233" style="stop-color:rgb(61.960784%,12.54902%,39.215686%);stop-opacity:1;"/>
<stop offset="0.6302" style="stop-color:rgb(78.823529%,12.54902%,21.568627%);stop-opacity:1;"/>
<stop offset="0.7514" style="stop-color:rgb(80.392157%,13.72549%,20.784314%);stop-opacity:1;"/>
<stop offset="1" style="stop-color:rgb(91.372549%,47.058824%,14.901961%);stop-opacity:1;"/>
</linearGradient>
<mask id="mask2">
  <g filter="url(#alpha)">
<rect x="0" y="0" width="100" height="100" style="fill:rgb(0%,0%,0%);fill-opacity:0.34902;stroke:none;"/>
  </g>
</mask>
<clipPath id="clip3">
  <rect x="0" y="0" width="100" height="100"/>
</clipPath>
<g id="surface11" clip-path="url(#clip3)">
<path style=" stroke:none;fill-rule:nonzero;fill:rgb(74.509804%,12.54902%,18.039216%);fill-opacity:1;" d="M 78.292969 34.175781 C 78.167969 34.199219 78.039062 34.214844 77.898438 34.238281 C 78.027344 34.214844 78.152344 34.1875 78.292969 34.175781 Z M 78.292969 34.175781 "/>
</g>
<linearGradient id="linear7" gradientUnits="userSpaceOnUse" x1="-8238.3281" y1="-745.68481" x2="-7698.647" y2="-745.68481" gradientTransform="matrix(0.0538515,-0.115489,0.115489,0.0538515,589.828982,-838.381873)">
<stop offset="0.3233" style="stop-color:rgb(61.960784%,12.54902%,39.215686%);stop-opacity:1;"/>
<stop offset="0.6302" style="stop-color:rgb(78.823529%,12.54902%,21.568627%);stop-opacity:1;"/>
<stop offset="0.7514" style="stop-color:rgb(80.392157%,13.72549%,20.784314%);stop-opacity:1;"/>
<stop offset="1" style="stop-color:rgb(91.372549%,47.058824%,14.901961%);stop-opacity:1;"/>
</linearGradient>
<mask id="mask3">
  <g filter="url(#alpha)">
<rect x="0" y="0" width="100" height="100" style="fill:rgb(0%,0%,0%);fill-opacity:0.34902;stroke:none;"/>
  </g>
</mask>
<clipPath id="clip4">
  <rect x="0" y="0" width="100" height="100"/>
</clipPath>
<g id="surface14" clip-path="url(#clip4)">
<path style=" stroke:none;fill-rule:nonzero;fill:rgb(74.509804%,12.54902%,18.039216%);fill-opacity:1;" d="M 79.3125 30.875 C 79.351562 30.875 79.390625 30.863281 79.441406 30.863281 C 79.402344 30.863281 79.363281 30.875 79.3125 30.875 Z M 79.3125 30.875 "/>
</g>
<linearGradient id="linear8" gradientUnits="userSpaceOnUse" x1="-8238.3281" y1="-747.58557" x2="-7698.647" y2="-747.58557" gradientTransform="matrix(0.0538515,-0.115489,0.115489,0.0538515,589.828982,-838.381873)">
<stop offset="0.3233" style="stop-color:rgb(61.960784%,12.54902%,39.215686%);stop-opacity:1;"/>
<stop offset="0.6302" style="stop-color:rgb(78.823529%,12.54902%,21.568627%);stop-opacity:1;"/>
<stop offset="0.7514" style="stop-color:rgb(80.392157%,13.72549%,20.784314%);stop-opacity:1;"/>
<stop offset="1" style="stop-color:rgb(91.372549%,47.058824%,14.901961%);stop-opacity:1;"/>
</linearGradient>
</defs>
<g id="surface1">
<path style=" stroke:none;fill-rule:nonzero;fill:rgb(69.019608%,68.627451%,69.019608%);fill-opacity:1;" d="M 0.367188 68.960938 L 0.367188 69.539062 L 0.203125 69.539062 L 0.203125 68.960938 L 0 68.960938 L 0 68.824219 L 0.5625 68.824219 L 0.5625 68.960938 Z M 0.367188 68.960938 "/>
<path style=" stroke:none;fill-rule:nonzero;fill:rgb(69.019608%,68.627451%,69.019608%);fill-opacity:1;" d="M 1.320312 69.089844 L 1.128906 69.476562 L 1.03125 69.476562 L 0.839844 69.089844 L 0.839844 69.539062 L 0.683594 69.539062 L 0.683594 68.824219 L 0.898438 68.824219 L 1.085938 69.214844 L 1.273438 68.824219 L 1.488281 68.824219 L 1.488281 69.539062 L 1.332031 69.539062 L 1.332031 69.089844 Z M 1.320312 69.089844 "/>
<path style="fill-rule:nonzero;fill:rgb(82.352941%,12.941176%,15.686275%);fill-opacity:1;stroke-width:3;stroke-linecap:butt;stroke-linejoin:round;stroke:rgb(82.352941%,12.941176%,15.686275%);stroke-opacity:1;stroke-miterlimit:4;" d="M -611.920972 207.085396 C -615.314331 207.085396 -618.308472 206.905747 -620.863472 206.526489 C -623.438432 206.227075 -625.594214 205.827857 -627.390698 205.348794 L -627.390698 185.108403 C -625.454487 185.527583 -623.398511 185.88688 -621.26269 186.206255 C -619.166792 186.52563 -616.871284 186.685317 -614.356206 186.685317 C -611.940932 186.685317 -609.725268 186.405864 -607.689253 185.88688 C -605.593354 185.367896 -603.776909 184.449693 -602.259878 183.152232 C -600.702925 181.894693 -599.505268 180.198013 -598.666909 178.042232 C -597.768667 175.906411 -597.329526 173.211685 -597.329526 169.958052 L -597.329526 58.595982 L -572.997143 58.595982 L -572.997143 169.179575 C -572.997143 175.766685 -573.955268 181.435591 -575.891479 186.206255 C -577.787768 190.956958 -580.442573 194.889263 -583.895815 197.983208 C -587.309136 201.117075 -591.381167 203.412583 -596.151831 204.889693 C -600.902534 206.346841 -606.172222 207.085396 -611.920972 207.085396 " transform="matrix(0.195695,0,0,0.195695,126.659857,56.37292)"/>
<path style="fill-rule:nonzero;fill:rgb(0%,0%,0%);fill-opacity:1;stroke-width:3;stroke-linecap:butt;stroke-linejoin:round;stroke:rgb(0%,0%,0%);stroke-opacity:1;stroke-miterlimit:4;" d="M -559.962651 58.615943 L -559.962651 173.33145 L -538.205229 173.33145 L -538.205229 119.955903 C -538.205229 118.498755 -538.245151 116.841997 -538.305034 115.025552 C -538.305034 113.189146 -538.364917 111.292857 -538.464722 109.296763 C -538.504643 107.32063 -538.564526 105.304575 -538.684292 103.26856 C -538.724214 101.232544 -538.824018 99.23645 -538.923823 97.300239 C -539.143393 92.809028 -539.402886 88.138169 -539.7023 83.327583 L -538.983706 83.327583 L -513.812964 173.33145 L -491.456714 173.33145 L -464.309839 83.487271 L -463.671089 83.487271 C -463.830776 88.257935 -464.010425 92.809028 -464.210034 97.200435 C -464.269917 99.096724 -464.349761 101.032935 -464.469526 103.029028 C -464.509448 105.005161 -464.569331 106.961333 -464.609253 108.897544 C -464.669136 110.833755 -464.729018 112.670161 -464.76894 114.386802 C -464.76894 116.123403 -464.76894 117.660396 -464.76894 119.017739 L -464.76894 173.33145 L -442.093315 173.33145 L -442.093315 58.615943 L -475.208511 58.615943 L -501.576909 146.324302 L -502.055972 146.324302 L -526.827495 58.615943 Z M -332.188393 66.919692 L -339.094878 85.423482 L -352.249136 93.447778 L -352.249136 103.587935 L -340.811518 103.587935 L -340.811518 145.8652 C -340.811518 151.514146 -340.132847 156.224927 -338.775503 159.997544 C -337.358276 163.710278 -335.422065 166.684458 -333.026753 168.920083 C -330.611479 171.115786 -327.757065 172.6927 -324.463511 173.590942 C -321.169956 174.469224 -317.616909 174.888403 -313.80437 174.888403 C -309.872065 174.888403 -306.259136 174.529107 -302.965581 173.730669 C -299.612143 173.012075 -296.837573 172.05395 -294.581987 170.896216 L -294.581987 153.09106 C -296.77769 153.869536 -298.933472 154.528247 -301.089253 155.047232 C -303.185151 155.566216 -305.420776 155.825708 -307.776167 155.825708 C -310.490854 155.825708 -312.686557 155.00731 -314.363276 153.390474 C -316.039995 151.773638 -316.858393 149.25856 -316.858393 145.8652 L -316.858393 103.587935 L -295.520151 103.587935 L -295.520151 85.60313 L -316.858393 85.60313 L -316.858393 66.919692 Z M -393.608198 83.966333 C -399.576518 83.966333 -405.005893 84.924458 -409.936245 86.860669 C -414.786753 88.79688 -418.97855 91.671255 -422.491675 95.543677 C -425.944917 99.376177 -428.639643 104.166802 -430.575854 109.915552 C -432.512065 115.684263 -433.490151 122.391138 -433.490151 130.076099 C -433.490151 137.661255 -432.432222 144.308247 -430.336323 149.957193 C -428.180542 155.546255 -425.226323 160.217114 -421.393823 163.929849 C -417.581284 167.5827 -413.03019 170.317349 -407.740542 172.153755 C -402.450893 173.9702 -396.682182 174.888403 -390.394487 174.888403 C -387.160815 174.888403 -384.186636 174.788599 -381.451987 174.509146 C -378.7373 174.309536 -376.1823 173.950239 -373.826909 173.431255 C -371.471518 172.89231 -369.275815 172.25356 -367.179917 171.515005 C -365.024136 170.736528 -362.888315 169.798364 -360.812378 168.700513 L -360.812378 150.176763 C -363.107886 151.334497 -365.363472 152.352505 -367.559175 153.230786 C -369.754878 154.069146 -371.990503 154.787739 -374.246089 155.366607 C -376.481714 155.945474 -378.797182 156.384614 -381.212456 156.703989 C -383.567847 156.963482 -386.082925 157.083247 -388.737729 157.083247 C -391.931479 157.083247 -394.785893 156.604185 -397.300972 155.606138 C -399.756167 154.628052 -401.891987 153.190864 -403.688472 151.354458 C -405.405112 149.47813 -406.742495 147.182622 -407.740542 144.527818 C -408.678706 141.793169 -409.19769 138.779067 -409.297495 135.42563 L -355.802182 135.42563 L -355.802182 123.808364 C -355.802182 117.420864 -356.680464 111.771919 -358.456987 106.861528 C -360.193589 101.891255 -362.688706 97.699458 -365.982261 94.306099 C -369.235893 90.892778 -373.228081 88.337778 -377.918901 86.621138 C -382.589761 84.824653 -387.799565 83.966333 -393.608198 83.966333 Z M -249.530151 83.966333 C -255.478511 83.966333 -260.907886 84.924458 -265.838237 86.860669 C -270.708706 88.79688 -274.900503 91.671255 -278.393667 95.543677 C -281.846909 99.376177 -284.561597 104.166802 -286.497807 109.915552 C -288.434018 115.684263 -289.392143 122.391138 -289.392143 130.076099 C -289.392143 137.661255 -288.334214 144.308247 -286.238315 149.957193 C -284.102495 155.546255 -281.128315 160.217114 -277.295815 163.929849 C -273.483276 167.5827 -268.932182 170.317349 -263.642534 172.153755 C -258.372847 173.9702 -252.584175 174.888403 -246.296479 174.888403 C -243.062807 174.888403 -240.088628 174.788599 -237.37394 174.509146 C -234.639292 174.309536 -232.104253 173.950239 -229.748862 173.431255 C -227.393472 172.89231 -225.177807 172.25356 -223.081909 171.515005 C -220.946089 170.736528 -218.810268 169.798364 -216.71437 168.700513 L -216.71437 150.176763 C -219.009878 151.334497 -221.265464 152.352505 -223.461167 153.230786 C -225.65687 154.069146 -227.892495 154.787739 -230.148081 155.366607 C -232.403667 155.945474 -234.719136 156.384614 -237.114448 156.703989 C -239.469839 156.963482 -241.984917 157.083247 -244.639722 157.083247 C -247.833472 157.083247 -250.707847 156.604185 -253.202964 155.606138 C -255.67812 154.628052 -257.774018 153.190864 -259.550542 151.354458 C -261.287143 149.47813 -262.644487 147.182622 -263.642534 144.527818 C -264.580698 141.793169 -265.099682 138.779067 -265.219448 135.42563 L -211.704175 135.42563 L -211.704175 123.808364 C -211.704175 117.420864 -212.582456 111.771919 -214.358979 106.861528 C -216.095581 101.891255 -218.610659 97.699458 -221.904214 94.306099 C -225.137886 90.892778 -229.130073 88.337778 -233.840854 86.621138 C -238.491753 84.824653 -243.721518 83.966333 -249.530151 83.966333 Z M -159.546245 83.966333 C -162.480503 83.966333 -165.095386 84.32563 -167.390893 85.044224 C -169.646479 85.722896 -171.682495 86.720942 -173.518901 88.018403 C -175.295425 89.275942 -176.8923 90.852857 -178.369409 92.669302 C -179.826557 94.505708 -181.203862 96.521763 -182.461401 98.777349 L -183.639097 98.777349 L -187.172182 85.60313 L -205.296714 85.60313 L -205.296714 173.33145 L -181.36355 173.33145 L -181.36355 128.678833 C -181.36355 124.546919 -180.864526 121.053755 -179.866479 118.239263 C -178.828511 115.364888 -177.391323 113.049419 -175.554917 111.332778 C -173.678589 109.556255 -171.423003 108.278755 -168.868003 107.480318 C -166.25312 106.701841 -163.418667 106.302622 -160.344682 106.302622 C -159.805737 106.302622 -159.147026 106.342544 -158.36855 106.402427 C -157.590073 106.402427 -156.811597 106.442349 -156.013159 106.542153 C -155.194761 106.602036 -154.376362 106.701841 -153.637807 106.801646 C -152.919214 106.90145 -152.340347 107.001255 -151.921167 107.121021 L -151.921167 84.645005 C -152.240542 84.5452 -152.699643 84.485318 -153.338393 84.425435 C -153.917261 84.32563 -154.575972 84.225825 -155.294565 84.165942 C -155.993198 84.066138 -156.711792 84.026216 -157.490268 84.026216 C -158.228823 83.966333 -158.927456 83.966333 -159.546245 83.966333 Z M -393.468472 100.993013 C -390.953393 100.993013 -388.75769 101.452114 -386.861401 102.390278 C -384.985073 103.328442 -383.408159 104.625903 -382.15062 106.302622 C -380.893081 107.919458 -379.954917 109.855669 -379.336128 112.111255 C -378.697378 114.366841 -378.358042 116.822036 -378.298159 119.496802 L -408.838393 119.496802 C -408.419214 113.109302 -406.822339 108.438443 -404.047768 105.464263 C -401.233276 102.470122 -397.70019 100.993013 -393.468472 100.993013 Z M -249.370464 100.993013 C -246.855386 100.993013 -244.659682 101.452114 -242.763393 102.390278 C -240.887065 103.328442 -239.310151 104.625903 -238.052612 106.302622 C -236.795073 107.919458 -235.87687 109.855669 -235.23812 112.111255 C -234.619331 114.366841 -234.260034 116.822036 -234.200151 119.496802 L -264.740386 119.496802 C -264.321206 113.109302 -262.724331 108.438443 -259.969722 105.464263 C -257.135268 102.470122 -253.602182 100.993013 -249.370464 100.993013 Z M -249.370464 100.993013 " transform="matrix(0.195695,0,0,0.195695,126.659857,56.37292)"/>
<path style=" stroke:none;fill-rule:nonzero;fill:rgb(30.196078%,30.196078%,30.196078%);fill-opacity:1;" d="M 95.382812 70.359375 L 94.695312 70.359375 L 94.695312 67.675781 L 93.878906 67.675781 L 93.878906 67.101562 L 96.199219 67.101562 L 96.199219 67.675781 L 95.382812 67.675781 L 95.382812 70.359375 "/>
<path style=" stroke:none;fill-rule:nonzero;fill:rgb(30.196078%,30.196078%,30.196078%);fill-opacity:1;" d="M 98.011719 70.359375 L 97.296875 67.804688 L 97.277344 67.804688 C 97.285156 67.941406 97.292969 68.074219 97.296875 68.199219 C 97.300781 68.257812 97.304688 68.3125 97.304688 68.371094 C 97.308594 68.429688 97.308594 68.484375 97.3125 68.542969 C 97.316406 68.597656 97.316406 68.652344 97.316406 68.703125 C 97.316406 68.757812 97.316406 68.804688 97.316406 68.84375 L 97.316406 70.359375 L 96.699219 70.359375 L 96.699219 67.101562 L 97.640625 67.101562 L 98.34375 69.59375 L 98.359375 69.59375 L 99.105469 67.101562 L 100.046875 67.101562 L 100.046875 70.359375 L 99.402344 70.359375 L 99.402344 68.816406 C 99.402344 68.78125 99.402344 68.734375 99.402344 68.6875 C 99.40625 68.636719 99.40625 68.585938 99.40625 68.53125 C 99.410156 68.476562 99.410156 68.421875 99.410156 68.363281 C 99.414062 68.308594 99.417969 68.253906 99.417969 68.199219 C 99.425781 68.074219 99.429688 67.945312 99.433594 67.808594 L 99.417969 67.808594 L 98.644531 70.359375 L 98.011719 70.359375 "/>
<path style=" stroke:none;fill-rule:nonzero;fill:rgb(82.352941%,12.941176%,15.686275%);fill-opacity:1;" d="M 9.703125 64.386719 L 13.066406 56.351562 L 13.714844 56.351562 L 17.074219 64.386719 L 16.230469 64.386719 L 15.1875 61.878906 L 11.570312 61.878906 L 10.542969 64.386719 Z M 13.390625 57.28125 L 11.742188 61.25 L 15.003906 61.25 Z M 13.390625 57.28125 "/>
<path style=" stroke:none;fill-rule:nonzero;fill:rgb(82.352941%,12.941176%,15.686275%);fill-opacity:1;" d="M 17.933594 64.386719 L 17.933594 56.351562 L 21.265625 56.351562 C 22.640625 56.351562 23.636719 57.628906 23.636719 58.875 C 23.636719 60.1875 22.710938 61.421875 21.332031 61.421875 L 18.71875 61.421875 L 18.71875 64.386719 Z M 18.71875 60.71875 L 21.292969 60.71875 C 22.238281 60.71875 22.851562 59.84375 22.851562 58.875 C 22.851562 57.867188 22.109375 57.054688 21.222656 57.054688 L 18.71875 57.054688 Z M 18.71875 60.71875 "/>
<path style=" stroke:none;fill-rule:nonzero;fill:rgb(82.352941%,12.941176%,15.686275%);fill-opacity:1;" d="M 23.203125 64.386719 L 26.5625 56.351562 L 27.210938 56.351562 L 30.574219 64.386719 L 29.714844 64.386719 L 28.671875 61.878906 L 25.0625 61.878906 L 24.035156 64.386719 Z M 26.890625 57.28125 L 25.242188 61.25 L 28.5 61.25 Z M 26.890625 57.28125 "/>
<path style=" stroke:none;fill-rule:nonzero;fill:rgb(82.352941%,12.941176%,15.686275%);fill-opacity:1;" d="M 34.367188 56.304688 C 35.792969 56.304688 36.835938 57.027344 37.335938 58.058594 L 36.699219 58.441406 C 36.1875 57.375 35.191406 57.015625 34.328125 57.015625 C 32.402344 57.015625 31.351562 58.734375 31.351562 60.347656 C 31.351562 62.121094 32.65625 63.734375 34.359375 63.734375 C 35.269531 63.734375 36.332031 63.28125 36.835938 62.238281 L 37.492188 62.578125 C 36.972656 63.78125 35.546875 64.449219 34.3125 64.449219 C 32.109375 64.449219 30.554688 62.339844 30.554688 60.308594 C 30.554688 58.378906 31.945312 56.304688 34.367188 56.304688 Z M 34.367188 56.304688 "/>
<path style=" stroke:none;fill-rule:nonzero;fill:rgb(82.352941%,12.941176%,15.686275%);fill-opacity:1;" d="M 44.933594 56.351562 L 44.933594 64.386719 L 44.140625 64.386719 L 44.140625 60.628906 L 39.382812 60.628906 L 39.382812 64.386719 L 38.601562 64.386719 L 38.601562 56.351562 L 39.382812 56.351562 L 39.382812 59.925781 L 44.140625 59.925781 L 44.140625 56.351562 Z M 44.933594 56.351562 "/>
<path style=" stroke:none;fill-rule:nonzero;fill:rgb(82.352941%,12.941176%,15.686275%);fill-opacity:1;" d="M 52.144531 63.683594 L 52.144531 64.386719 L 46.746094 64.386719 L 46.746094 56.351562 L 52.042969 56.351562 L 52.042969 57.054688 L 47.527344 57.054688 L 47.527344 59.953125 L 51.460938 59.953125 L 51.460938 60.621094 L 47.527344 60.621094 L 47.527344 63.683594 Z M 52.144531 63.683594 "/>
<path style=" stroke:none;fill-rule:nonzero;fill:url(#linear0);" d="M 85.226562 3.183594 C 84.15625 3.820312 82.371094 5.605469 80.257812 8.191406 L 82.207031 11.875 C 83.570312 9.914062 84.972656 8.152344 86.371094 6.648438 C 86.472656 6.535156 86.539062 6.472656 86.539062 6.472656 C 86.488281 6.535156 86.421875 6.585938 86.371094 6.648438 C 85.914062 7.148438 84.539062 8.753906 82.460938 11.953125 C 84.460938 11.847656 87.53125 11.441406 90.042969 11.007812 C 90.792969 6.828125 89.316406 4.917969 89.316406 4.917969 C 89.316406 4.917969 87.429688 1.871094 85.226562 3.183594 Z M 85.226562 3.183594 "/>
<path style=" stroke:none;fill-rule:nonzero;fill:rgb(74.509804%,12.54902%,18.039216%);fill-opacity:1;" d="M 78.664062 34.097656 C 78.410156 34.148438 78.152344 34.1875 77.898438 34.226562 C 78.027344 34.214844 78.167969 34.1875 78.292969 34.164062 C 78.421875 34.148438 78.546875 34.125 78.664062 34.097656 Z M 78.664062 34.097656 "/>
<use xlink:href="#surface5" mask="url(#mask0)"/>
<path style=" stroke:none;fill-rule:nonzero;fill:rgb(74.509804%,12.54902%,18.039216%);fill-opacity:1;" d="M 79.324219 30.875 C 79.3125 30.875 79.3125 30.875 79.324219 30.875 C 79.363281 30.875 79.402344 30.863281 79.441406 30.863281 C 79.605469 30.835938 79.773438 30.8125 79.925781 30.773438 C 79.734375 30.8125 79.53125 30.835938 79.324219 30.875 Z M 79.324219 30.875 "/>
<use xlink:href="#surface8" mask="url(#mask1)"/>
<path style=" stroke:none;fill-rule:nonzero;fill:url(#linear1);" d="M 76.445312 21.382812 C 77.042969 20.273438 77.644531 19.1875 78.242188 18.132812 C 78.867188 17.035156 79.503906 15.976562 80.152344 14.945312 C 80.191406 14.882812 80.230469 14.820312 80.269531 14.769531 C 80.90625 13.761719 81.542969 12.792969 82.191406 11.863281 L 80.242188 8.191406 C 80.101562 8.371094 79.949219 8.550781 79.796875 8.738281 C 79.238281 9.441406 78.648438 10.191406 78.050781 10.996094 C 77.375 11.902344 76.6875 12.855469 75.972656 13.863281 C 75.324219 14.792969 74.660156 15.773438 74 16.78125 C 73.4375 17.648438 72.878906 18.527344 72.316406 19.429688 C 72.292969 19.46875 72.277344 19.496094 72.253906 19.535156 L 74.789062 24.542969 C 75.351562 23.484375 75.898438 22.425781 76.445312 21.382812 Z M 76.445312 21.382812 "/>
<path style=" stroke:none;fill-rule:nonzero;fill:url(#linear2);" d="M 64.886719 49.632812 C 64.558594 50.550781 64.210938 51.492188 63.882812 52.460938 C 63.882812 52.472656 63.867188 52.488281 63.867188 52.5 C 63.816406 52.640625 63.765625 52.765625 63.726562 52.90625 C 63.5 53.558594 63.308594 54.144531 62.847656 55.46875 C 63.601562 55.8125 64.199219 56.703125 64.761719 57.722656 C 64.695312 56.667969 64.261719 55.671875 63.433594 54.90625 C 67.117188 55.074219 70.304688 54.144531 71.933594 51.441406 C 72.074219 51.199219 72.214844 50.945312 72.34375 50.675781 C 71.589844 51.621094 70.671875 52.027344 68.925781 51.925781 C 68.925781 51.925781 68.914062 51.925781 68.914062 51.925781 C 68.914062 51.925781 68.925781 51.925781 68.925781 51.925781 C 71.488281 50.777344 72.777344 49.671875 73.910156 47.847656 C 74.175781 47.414062 74.445312 46.945312 74.710938 46.421875 C 72.46875 48.726562 69.871094 49.378906 67.128906 48.878906 L 65.078125 49.109375 C 65.015625 49.289062 64.953125 49.453125 64.886719 49.632812 Z M 64.886719 49.632812 "/>
<path style=" stroke:none;fill-rule:nonzero;fill:url(#linear3);" d="M 65.84375 45.03125 C 66.289062 43.886719 66.75 42.726562 67.207031 41.554688 C 67.652344 40.433594 68.113281 39.308594 68.582031 38.175781 C 69.054688 37.042969 69.539062 35.90625 70.023438 34.773438 C 70.519531 33.613281 71.03125 32.46875 71.550781 31.320312 C 72.0625 30.1875 72.597656 29.050781 73.121094 27.929688 C 73.3125 27.523438 73.503906 27.128906 73.707031 26.71875 C 74.039062 26.03125 74.382812 25.34375 74.726562 24.65625 C 74.738281 24.617188 74.765625 24.578125 74.777344 24.542969 L 72.265625 19.546875 C 72.226562 19.609375 72.191406 19.6875 72.140625 19.75 C 71.550781 20.71875 70.953125 21.699219 70.378906 22.707031 C 69.792969 23.726562 69.21875 24.757812 68.660156 25.816406 C 68.1875 26.707031 67.730469 27.601562 67.269531 28.503906 C 67.183594 28.683594 67.09375 28.875 67.003906 29.050781 C 66.457031 30.1875 65.945312 31.296875 65.5 32.351562 C 64.988281 33.550781 64.542969 34.699219 64.148438 35.78125 C 63.894531 36.496094 63.652344 37.183594 63.433594 37.84375 C 63.257812 38.40625 63.089844 38.980469 62.925781 39.539062 C 62.542969 40.863281 62.226562 42.191406 61.957031 43.515625 L 64.503906 48.550781 C 64.835938 47.644531 65.195312 46.738281 65.539062 45.808594 C 65.640625 45.554688 65.742188 45.300781 65.84375 45.03125 Z M 65.84375 45.03125 "/>
<path style=" stroke:none;fill-rule:nonzero;fill:url(#linear4);" d="M 61.917969 43.695312 C 61.601562 45.300781 61.371094 46.90625 61.257812 48.511719 C 61.257812 48.5625 61.242188 48.625 61.242188 48.675781 C 60.453125 47.402344 58.3125 46.152344 58.324219 46.167969 C 59.855469 48.382812 61.015625 50.574219 61.179688 52.730469 C 60.363281 52.894531 59.242188 52.652344 57.957031 52.179688 C 59.308594 53.417969 60.3125 53.761719 60.707031 53.851562 C 59.472656 53.925781 58.183594 54.78125 56.886719 55.761719 C 58.785156 54.984375 60.324219 54.679688 61.421875 54.933594 C 59.675781 59.863281 57.929688 65.320312 56.183594 71.105469 C 56.71875 70.949219 57.039062 70.582031 57.21875 70.097656 C 57.523438 69.050781 59.601562 62.171875 62.835938 53.136719 C 62.925781 52.882812 63.027344 52.625 63.117188 52.359375 C 63.140625 52.28125 63.167969 52.21875 63.191406 52.140625 C 63.539062 51.199219 63.894531 50.230469 64.261719 49.238281 C 64.351562 49.007812 64.429688 48.792969 64.519531 48.5625 C 64.519531 48.5625 64.519531 48.550781 64.519531 48.550781 L 61.96875 43.515625 C 61.945312 43.578125 61.933594 43.628906 61.917969 43.695312 Z M 61.917969 43.695312 "/>
<path style=" stroke:none;fill-rule:nonzero;fill:url(#linear5);" d="M 75.195312 24.976562 C 75.121094 25.128906 75.058594 25.269531 74.980469 25.421875 C 74.765625 25.878906 74.535156 26.339844 74.316406 26.808594 C 74.074219 27.320312 73.832031 27.84375 73.578125 28.378906 C 73.453125 28.644531 73.324219 28.914062 73.195312 29.191406 C 72.8125 30.019531 72.433594 30.875 72.035156 31.753906 C 71.550781 32.835938 71.066406 33.957031 70.570312 35.128906 C 70.101562 36.238281 69.617188 37.398438 69.132812 38.585938 C 68.671875 39.71875 68.203125 40.878906 67.730469 42.089844 C 67.308594 43.160156 66.890625 44.265625 66.457031 45.402344 C 66.429688 45.453125 66.417969 45.515625 66.390625 45.566406 C 65.972656 46.6875 65.539062 47.847656 65.105469 49.035156 C 65.09375 49.058594 65.078125 49.085938 65.078125 49.109375 L 67.128906 48.878906 C 67.09375 48.867188 67.054688 48.867188 67.003906 48.855469 C 69.460938 48.550781 72.726562 46.714844 74.828125 44.445312 C 75.796875 43.402344 76.675781 42.175781 77.492188 40.738281 C 78.101562 39.667969 78.664062 38.480469 79.210938 37.15625 C 79.683594 36.011719 80.140625 34.761719 80.574219 33.410156 C 80.015625 33.703125 79.363281 33.921875 78.648438 34.074219 C 78.523438 34.097656 78.394531 34.125 78.269531 34.148438 C 78.140625 34.175781 78.011719 34.1875 77.875 34.214844 C 80.167969 33.335938 81.605469 31.640625 82.652344 29.550781 C 82.050781 29.957031 81.070312 30.492188 79.898438 30.761719 C 79.746094 30.796875 79.582031 30.824219 79.414062 30.847656 C 79.375 30.847656 79.339844 30.863281 79.289062 30.863281 C 80.078125 30.53125 80.753906 30.160156 81.339844 29.714844 C 81.464844 29.625 81.582031 29.523438 81.695312 29.421875 C 81.875 29.269531 82.039062 29.101562 82.207031 28.9375 C 82.308594 28.824219 82.410156 28.722656 82.511719 28.605469 C 82.742188 28.339844 82.957031 28.046875 83.148438 27.726562 C 83.210938 27.625 83.277344 27.535156 83.328125 27.433594 C 83.402344 27.28125 83.480469 27.140625 83.542969 27 C 83.863281 26.363281 84.117188 25.789062 84.320312 25.28125 C 84.421875 25.027344 84.511719 24.796875 84.589844 24.578125 C 84.613281 24.492188 84.652344 24.414062 84.679688 24.324219 C 84.753906 24.082031 84.832031 23.867188 84.882812 23.675781 C 84.957031 23.394531 85.007812 23.164062 85.035156 23 C 84.957031 23.0625 84.867188 23.125 84.765625 23.179688 C 84.078125 23.585938 82.894531 23.96875 81.9375 24.144531 L 83.824219 23.941406 L 81.9375 24.144531 C 81.925781 24.144531 81.914062 24.144531 81.898438 24.160156 C 81.8125 24.171875 81.707031 24.183594 81.605469 24.210938 C 81.621094 24.199219 81.644531 24.199219 81.65625 24.183594 L 75.210938 24.886719 C 75.222656 24.9375 75.210938 24.960938 75.195312 24.976562 Z M 75.195312 24.976562 "/>
<path style=" stroke:none;fill-rule:nonzero;fill:url(#linear6);" d="M 82.460938 11.953125 C 81.886719 12.832031 81.261719 13.835938 80.585938 14.957031 C 80.550781 15.023438 80.511719 15.074219 80.484375 15.136719 C 79.898438 16.117188 79.289062 17.1875 78.636719 18.375 C 78.078125 19.394531 77.492188 20.476562 76.878906 21.660156 C 76.34375 22.679688 75.808594 23.765625 75.234375 24.910156 L 81.683594 24.210938 C 83.554688 23.34375 84.398438 22.566406 85.214844 21.433594 C 85.429688 21.125 85.644531 20.796875 85.863281 20.449219 C 86.527344 19.417969 87.175781 18.285156 87.75 17.152344 C 88.308594 16.054688 88.804688 14.972656 89.175781 14.003906 C 89.417969 13.378906 89.609375 12.804688 89.75 12.296875 C 89.863281 11.847656 89.953125 11.429688 90.03125 11.019531 C 87.53125 11.441406 84.460938 11.847656 82.460938 11.953125 Z M 82.460938 11.953125 "/>
<path style=" stroke:none;fill-rule:nonzero;fill:rgb(74.509804%,12.54902%,18.039216%);fill-opacity:1;" d="M 78.292969 34.175781 C 78.167969 34.199219 78.039062 34.214844 77.898438 34.238281 C 78.027344 34.214844 78.152344 34.1875 78.292969 34.175781 Z M 78.292969 34.175781 "/>
<use xlink:href="#surface11" mask="url(#mask2)"/>
<path style=" stroke:none;fill-rule:nonzero;fill:url(#linear7);" d="M 78.292969 34.175781 C 78.167969 34.199219 78.039062 34.214844 77.898438 34.238281 C 78.027344 34.214844 78.152344 34.1875 78.292969 34.175781 Z M 78.292969 34.175781 "/>
<path style=" stroke:none;fill-rule:nonzero;fill:rgb(74.509804%,12.54902%,18.039216%);fill-opacity:1;" d="M 79.3125 30.875 C 79.351562 30.875 79.390625 30.863281 79.441406 30.863281 C 79.402344 30.863281 79.363281 30.875 79.3125 30.875 Z M 79.3125 30.875 "/>
<use xlink:href="#surface14" mask="url(#mask3)"/>
<path style=" stroke:none;fill-rule:nonzero;fill:url(#linear8);" d="M 79.3125 30.875 C 79.351562 30.875 79.390625 30.863281 79.441406 30.863281 C 79.402344 30.863281 79.363281 30.875 79.3125 30.875 Z M 79.3125 30.875 "/>
</g>
</svg>
